<svg width="75" height="24" viewBox="0 0 75 24" fill="none" xmlns="http://www.w3.org/2000/svg">
<path fill-rule="evenodd" clip-rule="evenodd" d="M20.5 19H3.5C2.67 19 2 18.33 2 17.5V6.5C2 5.67 2.67 5 3.5 5H20.5C21.33 5 22 5.67 22 6.5V17.5C22 18.33 21.33 19 20.5 19Z" fill="#B5CDFB" stroke="#7B62E0" stroke-width="1.2" stroke-miterlimit="10" stroke-linecap="round" stroke-linejoin="round"/>
<path d="M22 9H2V10H22V9Z" fill="#7B62E0"/>
<path d="M41.0532 14.5171H36.9224L36.0581 17H34.1318L38.1602 6.33594H39.8228L43.8584 17H41.9248L41.0532 14.5171ZM37.4424 13.0229H40.5332L38.9878 8.59912L37.4424 13.0229ZM51.8564 13.1182C51.8564 14.3486 51.5806 15.3276 51.0288 16.0552C50.4819 16.7827 49.7275 17.1465 48.7656 17.1465C47.8379 17.1465 47.1152 16.812 46.5977 16.1431L46.5098 17H44.8984V5.75H46.6782V9.83691C47.1909 9.23145 47.8818 8.92871 48.751 8.92871C49.7178 8.92871 50.4771 9.2876 51.0288 10.0054C51.5806 10.7231 51.8564 11.7266 51.8564 13.0156V13.1182ZM50.0767 12.9644C50.0767 12.105 49.9253 11.4604 49.6226 11.0308C49.3198 10.6011 48.8804 10.3862 48.3042 10.3862C47.5327 10.3862 46.9907 10.7231 46.6782 11.397V14.6636C46.9956 15.3521 47.5425 15.6963 48.3188 15.6963C48.8755 15.6963 49.3052 15.4888 49.6079 15.0737C49.9106 14.6587 50.0669 14.0312 50.0767 13.1914V12.9644ZM53.021 12.9644C53.021 12.188 53.1748 11.4897 53.4824 10.8696C53.79 10.2446 54.2222 9.76611 54.7788 9.43408C55.3354 9.09717 55.9751 8.92871 56.6978 8.92871C57.7671 8.92871 58.6338 9.27295 59.2979 9.96143C59.9668 10.6499 60.3281 11.563 60.3818 12.7007L60.3892 13.1182C60.3892 13.8994 60.2378 14.5977 59.9351 15.2129C59.6372 15.8281 59.2075 16.3042 58.646 16.6411C58.0894 16.978 57.4448 17.1465 56.7124 17.1465C55.5942 17.1465 54.6982 16.7754 54.0244 16.0332C53.3555 15.2861 53.021 14.2925 53.021 13.0522V12.9644ZM54.8008 13.1182C54.8008 13.9336 54.9692 14.5732 55.3062 15.0371C55.6431 15.4961 56.1118 15.7256 56.7124 15.7256C57.313 15.7256 57.7793 15.4912 58.1113 15.0225C58.4482 14.5537 58.6167 13.8677 58.6167 12.9644C58.6167 12.1636 58.4434 11.5288 58.0967 11.0601C57.7549 10.5913 57.2886 10.3569 56.6978 10.3569C56.1167 10.3569 55.6553 10.5889 55.3135 11.0527C54.9717 11.5117 54.8008 12.2002 54.8008 13.1182ZM66.6953 16.2236C66.1729 16.8389 65.4307 17.1465 64.4688 17.1465C63.6094 17.1465 62.9575 16.895 62.5132 16.3921C62.0737 15.8892 61.854 15.1616 61.854 14.2095V9.0752H63.6338V14.1875C63.6338 15.1934 64.0513 15.6963 64.8862 15.6963C65.7505 15.6963 66.334 15.3862 66.6367 14.7661V9.0752H68.4165V17H66.7393L66.6953 16.2236ZM72.4595 7.14893V9.0752H73.8584V10.3936H72.4595V14.8174C72.4595 15.1201 72.5181 15.3398 72.6353 15.4766C72.7573 15.6084 72.9722 15.6743 73.2798 15.6743C73.4849 15.6743 73.6924 15.6499 73.9023 15.6011V16.978C73.4971 17.0903 73.1064 17.1465 72.7305 17.1465C71.3633 17.1465 70.6797 16.3921 70.6797 14.8833V10.3936H69.376V9.0752H70.6797V7.14893H72.4595Z" fill="#BABABA"/>
</svg>
