<svg width="71" height="20" viewBox="0 0 71 20" fill="none" xmlns="http://www.w3.org/2000/svg">
<g clip-path="url(#clip0_1_99)">
<path d="M18 8H2V20H18V8Z" fill="#B5CDFB" stroke="#7B62E0" stroke-width="1.2" stroke-miterlimit="10" stroke-linecap="round" stroke-linejoin="round"/>
<path d="M12 12H8V20H12V12Z" fill="#B5CDFB" stroke="#7B62E0" stroke-width="1.2" stroke-miterlimit="10" stroke-linecap="round" stroke-linejoin="round"/>
<path d="M10 0L0 8H20L10 0Z" fill="#B5CDFB" stroke="#7B62E0" stroke-width="1.2" stroke-miterlimit="10" stroke-linecap="round" stroke-linejoin="round"/>
<path d="M39.5508 15H37.7051V10.2612H32.937V15H31.084V4.33594H32.937V8.77441H37.7051V4.33594H39.5508V15ZM41.2427 10.9644C41.2427 10.188 41.3965 9.48975 41.7041 8.86963C42.0117 8.24463 42.4438 7.76611 43.0005 7.43408C43.5571 7.09717 44.1968 6.92871 44.9194 6.92871C45.9888 6.92871 46.8555 7.27295 47.5195 7.96143C48.1885 8.6499 48.5498 9.56299 48.6035 10.7007L48.6108 11.1182C48.6108 11.8994 48.4595 12.5977 48.1567 13.2129C47.8589 13.8281 47.4292 14.3042 46.8677 14.6411C46.311 14.978 45.6665 15.1465 44.9341 15.1465C43.8159 15.1465 42.9199 14.7754 42.2461 14.0332C41.5771 13.2861 41.2427 12.2925 41.2427 11.0522V10.9644ZM43.0225 11.1182C43.0225 11.9336 43.1909 12.5732 43.5278 13.0371C43.8647 13.4961 44.3335 13.7256 44.9341 13.7256C45.5347 13.7256 46.001 13.4912 46.333 13.0225C46.6699 12.5537 46.8384 11.8677 46.8384 10.9644C46.8384 10.1636 46.665 9.52881 46.3184 9.06006C45.9766 8.59131 45.5103 8.35693 44.9194 8.35693C44.3384 8.35693 43.877 8.58887 43.5352 9.05273C43.1934 9.51172 43.0225 10.2002 43.0225 11.1182ZM51.7896 7.0752L51.8408 7.90283C52.3975 7.25342 53.1592 6.92871 54.126 6.92871C55.1855 6.92871 55.9106 7.33398 56.3013 8.14453C56.8774 7.33398 57.688 6.92871 58.7329 6.92871C59.6069 6.92871 60.2563 7.17041 60.6812 7.65381C61.1108 8.13721 61.3306 8.8501 61.3403 9.79248V15H59.5605V9.84375C59.5605 9.34082 59.4507 8.97217 59.231 8.73779C59.0112 8.50342 58.6475 8.38623 58.1396 8.38623C57.7344 8.38623 57.4023 8.49609 57.1436 8.71582C56.8896 8.93066 56.7114 9.21387 56.6089 9.56543L56.6162 15H54.8364V9.78516C54.812 8.85254 54.3359 8.38623 53.4082 8.38623C52.6953 8.38623 52.1899 8.67676 51.8921 9.25781V15H50.1123V7.0752H51.7896ZM66.6577 15.1465C65.5298 15.1465 64.6143 14.7925 63.9111 14.0845C63.2129 13.3716 62.8638 12.4243 62.8638 11.2427V11.0229C62.8638 10.2319 63.0151 9.52637 63.3179 8.90625C63.6255 8.28125 64.0552 7.79541 64.6069 7.44873C65.1587 7.10205 65.7739 6.92871 66.4526 6.92871C67.5317 6.92871 68.3643 7.27295 68.9502 7.96143C69.541 8.6499 69.8364 9.62402 69.8364 10.8838V11.6016H64.6582C64.7119 12.2559 64.9292 12.7734 65.3101 13.1543C65.6958 13.5352 66.1792 13.7256 66.7603 13.7256C67.5757 13.7256 68.2397 13.396 68.7524 12.7368L69.7119 13.6523C69.3945 14.126 68.9697 14.4946 68.4375 14.7583C67.9102 15.0171 67.3169 15.1465 66.6577 15.1465ZM66.4453 8.35693C65.957 8.35693 65.5615 8.52783 65.2588 8.86963C64.9609 9.21143 64.7705 9.6875 64.6875 10.2979H68.0786V10.166C68.0396 9.57031 67.8809 9.12109 67.6025 8.81836C67.3242 8.51074 66.9385 8.35693 66.4453 8.35693Z" fill="#BABABA"/>
</g>
<defs>
<clipPath id="clip0_1_99">
<rect width="71" height="20" fill="white"/>
</clipPath>
</defs>
</svg>
