<svg width="253" height="442" viewBox="0 0 253 442" fill="none" xmlns="http://www.w3.org/2000/svg">
<path d="M158.118 246.568L93.7496 249.159C93.7496 249.159 97.868 213.9 100.076 210.692C102.284 207.485 142.193 208.763 148.386 211.336C154.58 213.908 158.118 246.568 158.118 246.568Z" fill="#282A30"/>
<path d="M88.6213 311.089C88.6213 311.089 90.3308 280.68 92.3024 261.337C94.2473 242.255 100.335 212.882 100.335 212.882L126.838 222.183L114.206 309.222L88.6213 311.089Z" fill="#282A30"/>
<path d="M129.69 411.942L132.063 324.447L128.51 224.481L151.721 218.482L158.122 247.113L152.171 326.458L144.808 411.486L129.69 411.942Z" fill="#282A30"/>
<path d="M89.1694 431.342C89.1694 431.342 87.8506 438.484 88.8791 439.884C89.9075 441.285 112.263 443.178 112.852 439.884C113.822 434.462 111.623 428.713 111.623 428.713L89.1694 431.342Z" fill="#0E0F25"/>
<path d="M88.6213 311.091L95.3176 405.885L109.016 408.256L114.206 309.224L88.6213 311.091Z" fill="#282A30"/>
<path d="M108.494 405.467C108.724 409.855 110.783 407.688 109.89 413.799C108.997 419.911 114.686 435.642 110.626 436.607C106.566 437.571 88.5234 439.65 88.8819 433.431C89.5819 421.29 96.5097 421.174 95.7593 416.255C95.0089 411.336 92.7731 404.968 92.4186 401.433C92.0641 397.897 108.264 401.079 108.494 405.467Z" fill="#FF5252"/>
<path d="M151.69 430.844C151.69 430.844 153.009 437.986 151.981 439.386C150.952 440.787 128.223 442.726 128.007 439.386C127.792 436.047 128.518 431.195 128.518 431.195L151.69 430.844Z" fill="#0E0F25"/>
<path d="M131.199 404.491C130.969 408.879 128.911 406.712 129.804 412.824C130.696 418.935 126.169 435.641 130.229 436.605C134.289 437.57 152.332 439.649 151.974 433.429C151.274 421.288 143.184 420.198 143.934 415.279C144.685 410.36 147.472 403.45 147.827 399.915C148.181 396.379 131.429 400.103 131.199 404.491Z" fill="#FF5252"/>
<path d="M94.9486 311.4C97.3142 308.651 100.326 308.031 101.686 309.103C102.977 310.121 102.881 312.742 101.84 314.309C100.038 317.021 94.807 317.485 91.7328 314.922C88.9391 312.593 88.6243 308.345 90.0484 305.581C92.2961 301.218 98.7604 300.772 102.911 302.212C107.204 303.701 111.749 308.151 111.027 313.084C110.082 319.55 100.92 321.201 100.002 321.354C99.2721 321.475 91.7682 322.587 86.3732 316.913C82.0052 312.318 82.188 306.607 82.2387 305.581" stroke="#FF5252" stroke-width="1.12509" stroke-miterlimit="10" stroke-linecap="round"/>
<path d="M147.201 311.4C144.836 308.651 141.824 308.031 140.463 309.103C139.172 310.121 139.269 312.742 140.31 314.309C142.112 317.021 147.343 317.485 150.417 314.922C153.211 312.593 153.526 308.345 152.101 305.581C149.854 301.218 143.389 300.772 139.238 302.212C134.946 303.701 130.401 308.151 131.122 313.084C132.067 319.55 141.23 321.201 142.148 321.354C142.878 321.475 150.382 322.587 155.777 316.913C160.145 312.318 159.962 306.607 159.911 305.581" stroke="#FF5252" stroke-width="1.12509" stroke-miterlimit="10" stroke-linecap="round"/>
<path d="M67.5068 244.298L103.324 189.404L108.678 193.75L76.2949 247.342L67.5068 244.298Z" fill="#191919"/>
<path d="M174.467 245.079C167.447 248.788 165.459 247.753 165.459 247.753C165.459 247.753 157.892 234.324 147.15 213.416C145.066 209.358 145.134 169.366 145.251 152.743C145.285 148.322 145.32 145.559 145.32 145.559C142.982 142.831 143.297 138.718 146.026 136.38C148.761 134.036 150.975 128.799 152.901 131.835C155.575 136.051 156.198 142.803 156.26 151.016C156.37 164.623 154.944 182.219 158.79 198.85L174.467 245.079Z" fill="#DDBBA9"/>
<path d="M145.251 152.743C145.285 148.322 145.32 145.559 145.32 145.559C142.982 142.831 130.249 123.531 132.977 121.194C135.712 118.849 150.735 127.799 152.662 130.835C155.335 135.051 156.198 142.803 156.26 151.016L145.251 152.743Z" fill="#FFBD52"/>
<path d="M164.025 249.836C163.271 245.284 162.12 236.915 171.004 240.363C172.265 240.856 177.31 244.524 178.064 246.47C182.637 258.227 182.122 256.081 178.565 257.726C176.405 258.727 172.813 262.861 168.344 258.391C164.361 254.408 165.348 257.795 164.025 249.836Z" fill="#DDBBA9"/>
<path d="M133.245 299.748H67.506C66.231 299.748 65.1959 298.713 65.1959 297.438V246.608C65.1959 245.333 66.231 244.298 67.506 244.298H133.238C134.513 244.298 135.548 245.333 135.548 246.608V297.438C135.555 298.713 134.52 299.748 133.245 299.748Z" fill="#191919"/>
<path d="M67.0275 248.932C67.0275 248.932 92.0482 273.226 100.377 273.226C108.706 273.226 132.821 248.932 132.821 248.932" stroke="#7A90D6" stroke-width="1.09473" stroke-miterlimit="10" stroke-linecap="round"/>
<path d="M86.1175 145.894L96.3931 197.443C96.4617 204.175 97.7186 208.728 101.023 211.889C106.767 217.393 127.166 214.438 138.155 214.445C158.028 214.461 153.569 136.945 145.927 129.271C141.766 125.089 136.598 119.393 130.702 119.208C125.54 119.05 122.97 115.588 111.09 120.606C105.634 122.916 85.2881 140.019 86.1175 145.894Z" fill="#FFBD52"/>
<path d="M119.473 120.573L120.707 112.567C120.707 112.567 132.491 113.766 133.327 117.948C134.164 122.129 135.116 133.214 135.116 133.214L132.758 136.867L119.473 120.573Z" fill="#FFBD52"/>
<path d="M106.442 147.369C106.305 147.842 103.645 154.937 100.368 163.642C94.8776 178.25 87.6388 197.396 87.6388 197.396L98.4696 261.84L98.0309 261.819C93.9796 261.613 90.4288 259.043 88.955 255.266L71.0361 191.926C71.0361 191.926 76.2664 171.882 81.5173 155.492C84.8557 145.079 88.1941 136.14 90.2094 134.756C97.7567 129.573 109.479 136.86 106.442 147.369Z" fill="#DDBBA9"/>
<path d="M106.441 147.369C106.304 147.842 103.644 154.937 100.368 163.642C93.4374 158.405 86.9458 154.875 81.5167 155.492C84.855 145.079 88.1934 136.14 90.2088 134.756C97.7561 129.573 109.478 136.86 106.441 147.369Z" fill="#FFBD52"/>
<path d="M116.499 62.6134C115.533 60.1182 113.264 57.5613 111.009 56.3343C106.526 53.9008 100.802 52.8451 96.6886 55.2169C92.5756 57.5887 92.3906 57.1706 89.5183 61.8594C83.5271 71.6277 79.1673 85.4405 81.025 97.9713C82.0738 105.032 84.6856 114.745 85.4191 121.127C85.9195 125.446 85.9743 131.759 84.7199 133.281C81.4226 137.291 79.8803 135.201 76.2951 135.818C81.217 138.772 82.7388 140.342 90.2929 140.191C91.2526 140.171 101.946 137.374 104.599 133.802C106.923 130.67 107.129 122.649 107.19 119.873C107.567 103.188 98.2721 90.2252 104.592 74.6782C106.128 70.9148 112.921 65.2526 116.499 62.6134Z" fill="#191919"/>
<path d="M118.056 60.1806C117.631 64.5267 111.729 69.1469 107.581 69.9078C103.434 70.6687 102.331 75.4466 101.302 69.8461C100.274 64.2525 100.692 56.6435 104.84 55.8757C108.987 55.1079 118.591 54.6829 118.056 60.1806Z" fill="#FFBD52"/>
<path d="M144.838 81.6232C144.838 81.6232 150.932 74.4186 149.095 69.0306C147.258 63.6426 138.004 48.171 118.981 56.6985C118.981 56.6985 111.372 55.1562 104.613 64.7874C98.3409 73.7194 92.1098 98.3493 113.086 102.791L144.838 81.6232Z" fill="#191919"/>
<path d="M128.776 109.495L129.366 123.171L126.85 126.763L120.777 114.164L119.556 104.971L128.776 109.495Z" fill="black"/>
<path d="M119.747 106.67C119.747 106.67 133.135 112.634 136.083 111.105C142.848 107.609 147.517 75.7952 144.987 74.7601C142.458 73.725 116.032 67.1305 114.469 81.4506C113.585 89.5737 108.354 84.8095 108.354 84.8095C108.354 84.8095 103.131 82.7461 103.33 87.3321C103.528 91.9181 106.99 96.8262 109.506 95.469C109.506 95.469 115.271 117.11 112.906 123.225C133.608 139.409 129.618 129.031 129.365 123.17C129.111 117.302 128.947 113.504 128.947 113.504L119.747 106.67Z" fill="#DDBBA9"/>
<path d="M139.476 84.9954C139.799 89.9515 142.328 95.648 141.711 96.2306C140.649 97.2383 137.79 97.1149 137.55 96.9984" stroke="black" stroke-width="0.688551" stroke-miterlimit="10" stroke-linecap="round"/>
<path d="M127.295 86.9623C131.607 83.8296 133.814 85.1663 133.814 85.1663" stroke="black" stroke-width="1.08773" stroke-miterlimit="10" stroke-linecap="round"/>
<path d="M149.107 85.6592C145.961 84.6447 144.617 85.0012 144.617 85.0012" stroke="black" stroke-width="1.08773" stroke-miterlimit="10" stroke-linecap="round"/>
<path d="M132.717 89.7928C132.738 90.3686 132.285 90.8485 131.703 90.8691C131.525 90.8759 131.367 90.8416 131.216 90.7594C130.88 90.6017 130.64 90.259 130.633 89.8614C130.62 89.4089 130.894 89.0114 131.291 88.8537C131.394 88.8057 131.511 88.7783 131.641 88.7783C132.217 88.7577 132.697 89.2102 132.717 89.7928Z" fill="black"/>
<path d="M146.263 89.2998C146.283 89.8756 145.831 90.3555 145.255 90.376C144.673 90.3966 144.193 89.9442 144.172 89.3684C144.152 88.7857 144.604 88.3058 145.187 88.2853C145.762 88.2716 146.242 88.724 146.263 89.2998Z" fill="black"/>
<path d="M135.754 105.266C133.889 105.362 133.869 101.722 133.821 101.612L138.688 102.133C137.988 104.347 136.809 105.211 135.754 105.266Z" fill="white"/>
<path d="M112.838 91.3561C112.838 91.3561 114.97 91.3218 117.109 89.6835C119.248 88.0451 121.277 75.1989 127.364 77.0909C133.451 78.9829 146.633 78.9623 151.672 74.8356C156.703 70.7089 144.405 61.5781 144.405 61.5781C144.405 61.5781 127.83 59.9603 125.074 60.0906C123.155 60.1797 113.249 64.4983 107.395 67.1169C104.976 68.2 104.03 77.9272 105.065 80.3676L112.838 91.3561Z" fill="#191919"/>
<path d="M108.341 94.0579C108.765 94.0579 109.109 93.7142 109.109 93.2902C109.109 92.8662 108.765 92.5224 108.341 92.5224C107.917 92.5224 107.574 92.8662 107.574 93.2902C107.574 93.7142 107.917 94.0579 108.341 94.0579Z" fill="#FFBD52"/>
<path d="M108.677 121.882L112.358 111.257C112.358 111.257 120.015 116.837 120.851 121.025C121.687 125.207 129.358 131.891 129.358 131.891L121.955 138.177L108.677 121.882Z" fill="#FFBD52"/>
<path d="M96.8445 254.279C96.4675 253.854 97.1598 255.417 96.9336 255.663C95.5763 257.165 89.0641 255.533 89.0641 255.533C89.0641 255.533 89.3726 261.072 89.8182 265.302C90.0444 267.42 92.7452 270.347 92.5122 271.965C92.3065 273.39 87.7959 271.32 86.9596 271.594C86.4524 271.759 85.952 273.048 86.3358 273.466C88.0907 275.392 94.5412 275.906 96.2481 274.501C95.5421 275.2 98.2909 277.332 99.4494 275.982C99.5796 276.235 97.9344 278.847 99.7784 278.532C103.85 277.839 106.154 272.54 106.325 266.494C106.339 265.939 100.738 258.666 96.8445 254.279Z" fill="#DDBBA9"/>
<path d="M96.8456 254.279C96.4685 253.854 97.1609 255.417 96.9347 255.663C95.5774 257.165 89.0652 255.533 89.0652 255.533C89.0652 255.533 89.3737 261.072 89.8192 265.302C90.0454 267.42 92.7463 270.347 92.5132 271.965C92.3076 273.39 94.5423 275.906 96.2492 274.501C95.5431 275.2 93.9391 274.604 93.2604 275.289C92.5818 275.975 94.1379 276.496 95.5157 276.653C97.2911 276.852 98.292 277.332 99.4505 275.988C99.5807 276.242 97.9355 278.854 99.7795 278.538C103.851 277.846 106.155 272.547 106.326 266.501C106.34 265.939 100.739 258.666 96.8456 254.279Z" fill="#DDBBA9"/>
<path d="M139.682 123.314C139.682 123.314 137.475 234.536 124.026 247.752L135.556 246.607C135.556 246.607 149.046 143.152 145.934 129.271C145.934 129.278 146.846 122.587 139.682 123.314Z" fill="#191919"/>
<path d="M172.231 243.668C172.231 243.668 177.009 246.142 180.155 247.644C180.978 248.034 181.183 249.117 180.573 249.789L177.029 253.662" stroke="#DDBBA9" stroke-width="4.415" stroke-miterlimit="10" stroke-linecap="round"/>
<path d="M163.518 252.825C163.518 252.825 165.012 248.232 169.379 248.657C173.739 249.082 177.653 250.227 177.653 250.227" stroke="#191919" stroke-width="0.630714" stroke-miterlimit="10" stroke-linecap="round"/>
</svg>
