<svg width="24" height="24" viewBox="0 0 24 24" fill="none" xmlns="http://www.w3.org/2000/svg">
<path d="M0.5 5C0.5 2.51472 2.51472 0.5 5 0.5H12H19C21.4853 0.5 23.5 2.51472 23.5 5V19C23.5 21.4853 21.4853 23.5 19 23.5H5C2.51472 23.5 0.5 21.4853 0.5 19V5Z" fill="#0072B1" stroke="black"/>
<ellipse cx="5.16127" cy="5.33342" rx="2.58065" ry="2.42424" fill="white"/>
<rect x="3.09674" y="9.45459" width="4.12903" height="10.9091" fill="white"/>
<rect x="9.29034" y="9.45459" width="4.12903" height="10.9091" fill="white"/>
<rect x="17.0323" y="13.0908" width="3.87097" height="7.27273" fill="white"/>
<path d="M13.4194 10.5455C14.5919 9.63142 15.3133 9.30136 16.7742 9.21216C16.7742 9.21216 18.5807 9.45458 19.742 10.4243C20.9032 11.394 20.9032 13.0909 20.9032 13.0909H16.9032C16.9032 13.0909 15.8852 12.22 15.0968 12.2425C14.3531 12.2636 13.4194 13.0909 13.4194 13.0909V10.5455Z" fill="white"/>
</svg>
